<svg width="23" height="23" viewBox="0 0 23 23" fill="none" xmlns="http://www.w3.org/2000/svg">
<path d="M13.6999 6.3C13.5166 6.48692 13.414 6.73824 13.414 7C13.414 7.26175 13.5166 7.51307 13.6999 7.7L15.2999 9.3C15.4868 9.48322 15.7381 9.58585 15.9999 9.58585C16.2616 9.58585 16.5129 9.48322 16.6999 9.3L20.4699 5.53C20.9727 6.64118 21.1249 7.87923 20.9063 9.07914C20.6877 10.2791 20.1086 11.3838 19.2461 12.2463C18.3837 13.1087 17.2789 13.6878 16.079 13.9065C14.8791 14.1251 13.641 13.9728 12.5299 13.47L5.61986 20.38C5.22203 20.7778 4.68246 21.0013 4.11986 21.0013C3.55725 21.0013 3.01768 20.7778 2.61986 20.38C2.22203 19.9822 1.99854 19.4426 1.99854 18.88C1.99854 18.3174 2.22203 17.7778 2.61986 17.38L9.52986 10.47C9.02702 9.35881 8.87477 8.12076 9.0934 6.92085C9.31202 5.72094 9.89114 4.61615 10.7536 3.75372C11.616 2.89128 12.7208 2.31216 13.9207 2.09354C15.1206 1.87491 16.3587 2.02716 17.4699 2.52999L13.7099 6.29L13.6999 6.3Z" stroke="white" stroke-width="2" stroke-linecap="round" stroke-linejoin="round"/>
</svg>
