<svg width="24" height="25" viewBox="0 0 24 25" fill="none" xmlns="http://www.w3.org/2000/svg">
<g clip-path="url(#clip0_135_893)">
<path d="M15.3334 6.5C15.5085 6.3249 15.7163 6.18601 15.9451 6.09125C16.1739 5.99649 16.4191 5.94772 16.6667 5.94772C16.9143 5.94772 17.1595 5.99649 17.3883 6.09125C17.6171 6.18601 17.8249 6.3249 18 6.5C18.1751 6.6751 18.314 6.88297 18.4088 7.11174C18.5036 7.34051 18.5523 7.58571 18.5523 7.83333C18.5523 8.08096 18.5036 8.32615 18.4088 8.55493C18.314 8.7837 18.1751 8.99157 18 9.16667L9.00004 18.1667L5.33337 19.1667L6.33337 15.5L15.3334 6.5Z" stroke="#827D7D" stroke-width="2" stroke-linecap="round" stroke-linejoin="round"/>
</g>
<defs>
<clipPath id="clip0_135_893">
<rect width="16" height="16" fill="white" transform="translate(4 4.5)"/>
</clipPath>
</defs>
</svg>
