<svg width="56" height="57" viewBox="0 0 56 57" fill="none" xmlns="http://www.w3.org/2000/svg">
<path d="M42 47.1667C42 43.4536 40.525 39.8927 37.8995 37.2672C35.274 34.6417 31.713 33.1667 28 33.1667C24.287 33.1667 20.726 34.6417 18.1005 37.2672C15.475 39.8927 14 43.4536 14 47.1667" stroke="#302E2E" stroke-width="2" stroke-linecap="round" stroke-linejoin="round"/>
<path d="M28 33.1667C33.1547 33.1667 37.3333 28.988 37.3333 23.8333C37.3333 18.6787 33.1547 14.5 28 14.5C22.8453 14.5 18.6667 18.6787 18.6667 23.8333C18.6667 28.988 22.8453 33.1667 28 33.1667Z" stroke="#302E2E" stroke-width="2" stroke-linecap="round" stroke-linejoin="round"/>
<path d="M28 51.8333C40.8866 51.8333 51.3333 41.3867 51.3333 28.5C51.3333 15.6134 40.8866 5.16667 28 5.16667C15.1134 5.16667 4.66667 15.6134 4.66667 28.5C4.66667 41.3867 15.1134 51.8333 28 51.8333Z" stroke="#302E2E" stroke-width="2" stroke-linecap="round" stroke-linejoin="round"/>
</svg>
